<svg width="1024" height="1024" xmlns="http://www.w3.org/2000/svg" p-id="11937" version="1.1" class="icon" t="1727272535995">

 <g>
  <title>Layer 1</title>
  <path id="svg_1" p-id="11938" fill="#FCFCFC" d="m925.71933,267.60533l0,701.952l-730.112,0l0,-909.65333l521.216,0l208.896,207.70133z"/>
  <path id="svg_2" p-id="11939" fill="#185abd" d="m912.896,253.952l2.56,671.91467c0,15.53066 -12.45867,27.98933 -27.98933,27.98933l-649.55734,0c-15.53066,0 -27.98933,-12.45867 -27.98933,-27.98933l0,-828.928c0,-15.53067 12.45867,-27.98934 27.98933,-27.98934l493.39734,-1.024l-38.912,-39.936l-453.12,0c-36.352,0 -65.70667,29.35467 -65.70667,65.70667l0,835.584c0,36.352 29.35467,65.70667 65.70667,65.70667l646.82666,0c36.352,0 65.70667,-29.35467 65.70667,-65.70667l0,-635.392l-38.912,-39.936z"/>
  <path id="svg_3" p-id="11940" fill="#8cbee2" d="m692.39467,222.72c0,39.424 31.91466,71.33867 71.33866,71.33867l188.24534,0l-259.584,-266.06934l0,194.73067z"/>
  <path id="svg_4" p-id="11941" fill="#4191FB" d="m557.568,431.054l-398.848,0c-50.34667,0 -91.136,-40.78933 -91.136,-91.136l0,-60.24533c0,-50.34667 40.78933,-91.136 91.136,-91.136l398.848,0c50.34667,0 91.136,40.78933 91.136,91.136l0,60.24533c0,50.34667 -40.78933,91.136 -91.136,91.136z"/>
  <text id="svg_5" font-weight=" bold" fill="white" font-size="140" font-family="Arial" y="360.75" x="112">HIDELL</text>
  <path id="svg_7" p-id="11944" fill="#FFCC40" d="m788.30933,610.304l-243.54133,0l-67.41333,-56.32c-2.73067,-2.38933 -6.31467,-3.24267 -9.728,-2.90133l-135.33867,0c-7.168,0 -12.97067,5.80266 -12.97067,12.97066l0,302.08c0,7.168 5.80267,12.97067 12.97067,12.97067l456.02133,0c7.168,0 14.22067,-2.05267 12.97067,-12.97067l0,-242.85866c0.17067,-7.168 -5.80267,-12.97067 -12.97067,-12.97067z"/>
  <path stroke="null" id="svg_6" p-id="11943" fill="#0A66B1" d="m692.55999,753.99999l-235.86133,0c-12.45867,0 -22.69867,10.24 -22.69867,22.69866s10.24,22.69867 22.69867,22.69867l235.86133,0c12.45867,0 22.69867,-10.24 22.69867,-22.69867s-10.24,-22.69866 -22.69867,-22.69866z"/>
  <rect stroke="null" id="svg_8" height="8" width="194.66667" y="773.3333" x="477.33332" fill="#084a8b"/>
  <rect stroke="null" id="svg_16" height="26" width="480.91662" y="636.42673" x="319.8333" fill="#f2d394"/>
 </g>
</svg>